ffmpeg started on 2025-04-30 at 17:26:17
Report written to "D:\Convert\FFMetrics\reports\ssim_report-6.txt"
Log level: 32
Command line:
ffmpeg -hide_banner -nostdin -i "G:\\\xc0\xed\xe8\xec\xe5\\\xce\xed\xe3\xee\xe8\xed\xe3\xe8\\!_37_\xc7\xe8\xec\xe0_2025\\JamClub\\\xcf\xee\xe4\xed\xff\xf2\xe8\xe5 \xf3\xf0\xee\xe2\xed\xff \xe2 \xee\xe4\xe8\xed\xee\xf7\xea\xf3\\\xd2\xc2-2\\JamClub_Ore_dake_Level_Up_na_Ken_Season_2_03_1080p_HEVC.mkv" -i "G:\\\xc0\xed\xe8\xec\xe5\\\xce\xed\xe3\xee\xe8\xed\xe3\xe8\\!_37_\xc7\xe8\xec\xe0_2025\\JamClub\\\xcf\xee\xe4\xed\xff\xf2\xe8\xe5 \xf3\xf0\xee\xe2\xed\xff \xe2 \xee\xe4\xe8\xed\xee\xf7\xea\xf3\\\xd2\xc2-2\\JamClub_Ore_dake_Level_Up_na_Ken_Season_2_03_1080p.mp4" -lavfi "[0:v]settb=AVTB,setpts=PTS-STARTPTS,format=pix_fmts=yuv420p10,fps=24000/1001,scale=1920:1080:flags=bicubic[main];[1:v]settb=AVTB,setpts=PTS-STARTPTS,format=pix_fmts=yuv420p,fps=24000/1001,scale=1920:1080:flags=bicubic[ref];[main][ref]ssim=eof_action=endall:stats_file='D\\:/Convert/FFMetrics/logs/ssim_logfile-6.txt'" -f null -
Input #0, matroska,webm, from 'G:\Аниме\Онгоинги\!_37_Зима_2025\JamClub\Поднятие уровня в одиночку\ТВ-2\JamClub_Ore_dake_Level_Up_na_Ken_Season_2_03_1080p_HEVC.mkv':
  Metadata:
    COMPATIBLE_BRANDS: isomiso2avc1mp41
    MAJOR_BRAND     : isom
    MINOR_VERSION   : 512
    ENCODER         : Lavf61.7.100
  Duration: 00:24:03.91, start: -0.001000, bitrate: 1705 kb/s
  Stream #0:0: Video: hevc (Main 10), yuv420p10le(tv, bt709, progressive), 1920x1080 [SAR 1:1 DAR 16:9], 23.98 fps, 23.98 tbr, 1k tbn (default)
      Metadata:
        HANDLER_NAME    : VideoHandler
        VENDOR_ID       : [0][0][0][0]
        ENCODER         : Lavc61.19.100 libx265
        BPS             : 1507545
        DURATION        : 00:24:02.148708333
        NUMBER_OF_FRAMES: 34577
        NUMBER_OF_BYTES : 271762930
        _STATISTICS_WRITING_APP: mkvpropedit v66.0.0 ('Josie') 64-bit
        _STATISTICS_WRITING_DATE_UTC: 2025-04-30 07:43:03
        _STATISTICS_TAGS: BPS DURATION NUMBER_OF_FRAMES NUMBER_OF_BYTES
  Stream #0:1(eng): Audio: aac (LC), 48000 Hz, stereo, fltp (default)
      Metadata:
        HANDLER_NAME    : SoundHandler
        VENDOR_ID       : [0][0][0][0]
        ENCODER         : Lavc61.19.100 aac
        BPS             : 195702
        DURATION        : 00:24:03.864000000
        NUMBER_OF_FRAMES: 67682
        NUMBER_OF_BYTES : 35320988
        _STATISTICS_WRITING_APP: mkvpropedit v66.0.0 ('Josie') 64-bit
        _STATISTICS_WRITING_DATE_UTC: 2025-04-30 07:43:03
        _STATISTICS_TAGS: BPS DURATION NUMBER_OF_FRAMES NUMBER_OF_BYTES
Input #1, mov,mp4,m4a,3gp,3g2,mj2, from 'G:\Аниме\Онгоинги\!_37_Зима_2025\JamClub\Поднятие уровня в одиночку\ТВ-2\JamClub_Ore_dake_Level_Up_na_Ken_Season_2_03_1080p.mp4':
  Metadata:
    major_brand     : isom
    minor_version   : 512
    compatible_brands: isomiso2avc1mp41
    encoder         : Lavf60.16.100
  Duration: 00:24:03.88, start: 0.000000, bitrate: 4880 kb/s
  Stream #1:0[0x1](und): Video: h264 (High) (avc1 / 0x31637661), yuv420p(progressive), 1920x1080 [SAR 1:1 DAR 16:9], 4687 kb/s, 23.98 fps, 23.98 tbr, 90k tbn (default)
      Metadata:
        handler_name    : VideoHandler
        vendor_id       : [0][0][0][0]
  Stream #1:1[0x2](eng): Audio: aac (LC) (mp4a / 0x6134706D), 48000 Hz, stereo, fltp, 191 kb/s (default)
      Metadata:
        handler_name    : SoundHandler
        vendor_id       : [0][0][0][0]
Stream mapping:
  Stream #0:0 (hevc) -> settb:default
  Stream #1:0 (h264) -> settb:default
  ssim:default -> Stream #0:0 (wrapped_avframe)
  Stream #0:1 -> #0:1 (aac (native) -> pcm_s16le (native))
Output #0, null, to 'pipe:':
  Metadata:
    COMPATIBLE_BRANDS: isomiso2avc1mp41
    MAJOR_BRAND     : isom
    MINOR_VERSION   : 512
    encoder         : Lavf61.7.100
  Stream #0:0: Video: wrapped_avframe, yuv420p10le(tv, bt709, progressive), 1920x1080 [SAR 1:1 DAR 16:9], q=2-31, 200 kb/s, 23.98 fps, 23.98 tbn
      Metadata:
        encoder         : Lavc61.19.100 wrapped_avframe
  Stream #0:1(eng): Audio: pcm_s16le, 48000 Hz, stereo, s16, 1536 kb/s (default)
      Metadata:
        HANDLER_NAME    : SoundHandler
        VENDOR_ID       : [0][0][0][0]
        _STATISTICS_TAGS: BPS DURATION NUMBER_OF_FRAMES NUMBER_OF_BYTES
        BPS             : 195702
        DURATION        : 00:24:03.864000000
        NUMBER_OF_FRAMES: 67682
        NUMBER_OF_BYTES : 35320988
        _STATISTICS_WRITING_APP: mkvpropedit v66.0.0 ('Josie') 64-bit
        _STATISTICS_WRITING_DATE_UTC: 2025-04-30 07:43:03
        encoder         : Lavc61.19.100 pcm_s16le
frame=  110 fps=0.0 q=-0.0 size=N/A time=00:00:04.58 bitrate=N/A speed=8.89x    frame=  271 fps=261 q=-0.0 size=N/A time=00:00:11.30 bitrate=N/A speed=10.9x    frame=  473 fps=302 q=-0.0 size=N/A time=00:00:19.72 bitrate=N/A speed=12.6x    frame=  717 fps=346 q=-0.0 size=N/A time=00:00:29.90 bitrate=N/A speed=14.4x    frame=  957 fps=368 q=-0.0 size=N/A time=00:00:39.91 bitrate=N/A speed=15.4x    frame= 1154 fps=372 q=-0.0 size=N/A time=00:00:48.13 bitrate=N/A speed=15.5x    frame= 1389 fps=383 q=-0.0 size=N/A time=00:00:57.93 bitrate=N/A speed=  16x    frame= 1607 fps=388 q=-0.0 size=N/A time=00:01:07.02 bitrate=N/A speed=16.2x    frame= 1830 fps=392 q=-0.0 size=N/A time=00:01:16.32 bitrate=N/A speed=16.4x    frame= 2093 fps=405 q=-0.0 size=N/A time=00:01:27.29 bitrate=N/A speed=16.9x    frame= 2349 fps=413 q=-0.0 size=N/A time=00:01:37.97 bitrate=N/A speed=17.2x    frame= 2592 fps=417 q=-0.0 size=N/A time=00:01:48.10 bitrate=N/A speed=17.4x    frame= 2830 fps=421 q=-0.0 size=N/A time=00:01:58.03 bitrate=N/A speed=17.6x    frame= 3071 fps=424 q=-0.0 size=N/A time=00:02:08.08 bitrate=N/A speed=17.7x    frame= 3261 fps=421 q=-0.0 size=N/A time=00:02:16.01 bitrate=N/A speed=17.6x    frame= 3465 fps=419 q=-0.0 size=N/A time=00:02:24.51 bitrate=N/A speed=17.5x    frame= 3665 fps=417 q=-0.0 size=N/A time=00:02:32.86 bitrate=N/A speed=17.4x    frame= 3858 fps=415 q=-0.0 size=N/A time=00:02:40.91 bitrate=N/A speed=17.3x    frame= 4030 fps=411 q=-0.0 size=N/A time=00:02:48.08 bitrate=N/A speed=17.1x    frame= 4196 fps=406 q=-0.0 size=N/A time=00:02:55.00 bitrate=N/A speed=16.9x    frame= 4373 fps=403 q=-0.0 size=N/A time=00:03:02.39 bitrate=N/A speed=16.8x    frame= 4574 fps=402 q=-0.0 size=N/A time=00:03:10.77 bitrate=N/A speed=16.8x    frame= 4735 fps=399 q=-0.0 size=N/A time=00:03:17.48 bitrate=N/A speed=16.6x    frame= 4901 fps=396 q=-0.0 size=N/A time=00:03:24.41 bitrate=N/A speed=16.5x    frame= 5054 fps=391 q=-0.0 size=N/A time=00:03:30.79 bitrate=N/A speed=16.3x    frame= 5243 fps=390 q=-0.0 size=N/A time=00:03:38.67 bitrate=N/A speed=16.3x    frame= 5486 fps=393 q=-0.0 size=N/A time=00:03:48.81 bitrate=N/A speed=16.4x    frame= 5754 fps=398 q=-0.0 size=N/A time=00:03:59.98 bitrate=N/A speed=16.6x    frame= 6013 fps=401 q=-0.0 size=N/A time=00:04:10.79 bitrate=N/A speed=16.7x    frame= 6282 fps=405 q=-0.0 size=N/A time=00:04:22.01 bitrate=N/A speed=16.9x    frame= 6549 fps=409 q=-0.0 size=N/A time=00:04:33.14 bitrate=N/A speed=17.1x    frame= 6792 fps=411 q=-0.0 size=N/A time=00:04:43.28 bitrate=N/A speed=17.1x    frame= 7039 fps=413 q=-0.0 size=N/A time=00:04:53.58 bitrate=N/A speed=17.2x    frame= 7309 fps=416 q=-0.0 size=N/A time=00:05:04.84 bitrate=N/A speed=17.4x    frame= 7575 fps=419 q=-0.0 size=N/A time=00:05:15.94 bitrate=N/A speed=17.5x    frame= 7843 fps=422 q=-0.0 size=N/A time=00:05:27.11 bitrate=N/A speed=17.6x    frame= 8094 fps=424 q=-0.0 size=N/A time=00:05:37.58 bitrate=N/A speed=17.7x    frame= 8332 fps=424 q=-0.0 size=N/A time=00:05:47.51 bitrate=N/A speed=17.7x    frame= 8597 fps=427 q=-0.0 size=N/A time=00:05:58.56 bitrate=N/A speed=17.8x    frame= 8854 fps=429 q=-0.0 size=N/A time=00:06:09.28 bitrate=N/A speed=17.9x    frame= 9091 fps=429 q=-0.0 size=N/A time=00:06:19.17 bitrate=N/A speed=17.9x    frame= 9360 fps=432 q=-0.0 size=N/A time=00:06:30.39 bitrate=N/A speed=  18x    frame= 9622 fps=433 q=-0.0 size=N/A time=00:06:41.31 bitrate=N/A speed=18.1x    frame= 9896 fps=435 q=-0.0 size=N/A time=00:06:52.74 bitrate=N/A speed=18.2x    frame=10148 fps=437 q=-0.0 size=N/A time=00:07:03.25 bitrate=N/A speed=18.2x    frame=10417 fps=439 q=-0.0 size=N/A time=00:07:14.47 bitrate=N/A speed=18.3x    frame=10679 fps=440 q=-0.0 size=N/A time=00:07:25.40 bitrate=N/A speed=18.4x    frame=10868 fps=439 q=-0.0 size=N/A time=00:07:33.28 bitrate=N/A speed=18.3x    frame=11073 fps=438 q=-0.0 size=N/A time=00:07:41.83 bitrate=N/A speed=18.3x    frame=11260 fps=436 q=-0.0 size=N/A time=00:07:49.63 bitrate=N/A speed=18.2x    frame=11464 fps=435 q=-0.0 size=N/A time=00:07:58.14 bitrate=N/A speed=18.2x    frame=11724 fps=437 q=-0.0 size=N/A time=00:08:08.98 bitrate=N/A speed=18.2x    frame=11952 fps=437 q=-0.0 size=N/A time=00:08:18.49 bitrate=N/A speed=18.2x    frame=12179 fps=437 q=-0.0 size=N/A time=00:08:27.96 bitrate=N/A speed=18.2x    frame=12393 fps=436 q=-0.0 size=N/A time=00:08:36.89 bitrate=N/A speed=18.2x    frame=12601 fps=436 q=-0.0 size=N/A time=00:08:45.56 bitrate=N/A speed=18.2x    frame=12832 fps=436 q=-0.0 size=N/A time=00:08:55.20 bitrate=N/A speed=18.2x    frame=13100 fps=438 q=-0.0 size=N/A time=00:09:06.37 bitrate=N/A speed=18.3x    frame=13378 fps=439 q=-0.0 size=N/A time=00:09:17.97 bitrate=N/A speed=18.3x    frame=13656 fps=441 q=-0.0 size=N/A time=00:09:29.56 bitrate=N/A speed=18.4x    frame=13930 fps=443 q=-0.0 size=N/A time=00:09:40.99 bitrate=N/A speed=18.5x    frame=14190 fps=443 q=-0.0 size=N/A time=00:09:51.84 bitrate=N/A speed=18.5x    frame=14431 fps=444 q=-0.0 size=N/A time=00:10:01.89 bitrate=N/A speed=18.5x    frame=14688 fps=445 q=-0.0 size=N/A time=00:10:12.61 bitrate=N/A speed=18.5x    frame=14969 fps=446 q=-0.0 size=N/A time=00:10:24.33 bitrate=N/A speed=18.6x    frame=15235 fps=447 q=-0.0 size=N/A time=00:10:35.42 bitrate=N/A speed=18.7x    frame=15463 fps=447 q=-0.0 size=N/A time=00:10:44.93 bitrate=N/A speed=18.6x    frame=15653 fps=446 q=-0.0 size=N/A time=00:10:52.86 bitrate=N/A speed=18.6x    frame=15843 fps=445 q=-0.0 size=N/A time=00:11:00.78 bitrate=N/A speed=18.6x    frame=16013 fps=443 q=-0.0 size=N/A time=00:11:07.87 bitrate=N/A speed=18.5x    frame=16198 fps=442 q=-0.0 size=N/A time=00:11:15.59 bitrate=N/A speed=18.4x    frame=16353 fps=440 q=-0.0 size=N/A time=00:11:22.05 bitrate=N/A speed=18.4x    frame=16528 fps=439 q=-0.0 size=N/A time=00:11:29.35 bitrate=N/A speed=18.3x    frame=16732 fps=438 q=-0.0 size=N/A time=00:11:37.86 bitrate=N/A speed=18.3x    frame=16941 fps=438 q=-0.0 size=N/A time=00:11:46.58 bitrate=N/A speed=18.3x    frame=17099 fps=436 q=-0.0 size=N/A time=00:11:53.17 bitrate=N/A speed=18.2x    frame=17292 fps=435 q=-0.0 size=N/A time=00:12:01.22 bitrate=N/A speed=18.1x    frame=17477 fps=434 q=-0.0 size=N/A time=00:12:08.93 bitrate=N/A speed=18.1x    frame=17731 fps=435 q=-0.0 size=N/A time=00:12:19.53 bitrate=N/A speed=18.1x    frame=18004 fps=436 q=-0.0 size=N/A time=00:12:30.91 bitrate=N/A speed=18.2x    frame=18292 fps=438 q=-0.0 size=N/A time=00:12:42.92 bitrate=N/A speed=18.3x    frame=18512 fps=438 q=-0.0 size=N/A time=00:12:52.10 bitrate=N/A speed=18.2x    frame=18700 fps=437 q=-0.0 size=N/A time=00:12:59.94 bitrate=N/A speed=18.2x    frame=18882 fps=436 q=-0.0 size=N/A time=00:13:07.53 bitrate=N/A speed=18.2x    frame=19096 fps=435 q=-0.0 size=N/A time=00:13:16.46 bitrate=N/A speed=18.2x    frame=19318 fps=435 q=-0.0 size=N/A time=00:13:25.72 bitrate=N/A speed=18.2x    frame=19518 fps=435 q=-0.0 size=N/A time=00:13:34.06 bitrate=N/A speed=18.1x    frame=19701 fps=434 q=-0.0 size=N/A time=00:13:41.69 bitrate=N/A speed=18.1x    frame=19900 fps=433 q=-0.0 size=N/A time=00:13:49.99 bitrate=N/A speed=18.1x    frame=20086 fps=433 q=-0.0 size=N/A time=00:13:57.75 bitrate=N/A speed=  18x    frame=20301 fps=432 q=-0.0 size=N/A time=00:14:06.72 bitrate=N/A speed=  18x    frame=20547 fps=433 q=-0.0 size=N/A time=00:14:16.98 bitrate=N/A speed=18.1x    frame=20797 fps=433 q=-0.0 size=N/A time=00:14:27.40 bitrate=N/A speed=18.1x    frame=21040 fps=434 q=-0.0 size=N/A time=00:14:37.54 bitrate=N/A speed=18.1x    frame=21256 fps=434 q=-0.0 size=N/A time=00:14:46.55 bitrate=N/A speed=18.1x    frame=21481 fps=434 q=-0.0 size=N/A time=00:14:55.93 bitrate=N/A speed=18.1x    frame=21694 fps=433 q=-0.0 size=N/A time=00:15:04.82 bitrate=N/A speed=18.1x    frame=21894 fps=433 q=-0.0 size=N/A time=00:15:13.16 bitrate=N/A speed=18.1x    frame=22123 fps=433 q=-0.0 size=N/A time=00:15:22.71 bitrate=N/A speed=18.1x    frame=22320 fps=433 q=-0.0 size=N/A time=00:15:30.93 bitrate=N/A speed=  18x    frame=22527 fps=432 q=-0.0 size=N/A time=00:15:39.56 bitrate=N/A speed=  18x    frame=22740 fps=432 q=-0.0 size=N/A time=00:15:48.44 bitrate=N/A speed=  18x    frame=22917 fps=431 q=-0.0 size=N/A time=00:15:55.82 bitrate=N/A speed=  18x    frame=23109 fps=431 q=-0.0 size=N/A time=00:16:03.83 bitrate=N/A speed=  18x    frame=23302 fps=430 q=-0.0 size=N/A time=00:16:11.88 bitrate=N/A speed=17.9x    frame=23492 fps=430 q=-0.0 size=N/A time=00:16:19.81 bitrate=N/A speed=17.9x    frame=23691 fps=429 q=-0.0 size=N/A time=00:16:28.11 bitrate=N/A speed=17.9x    frame=23886 fps=429 q=-0.0 size=N/A time=00:16:36.24 bitrate=N/A speed=17.9x    frame=24075 fps=428 q=-0.0 size=N/A time=00:16:44.12 bitrate=N/A speed=17.9x    frame=24240 fps=427 q=-0.0 size=N/A time=00:16:51.01 bitrate=N/A speed=17.8x    frame=24423 fps=426 q=-0.0 size=N/A time=00:16:58.64 bitrate=N/A speed=17.8x    frame=24631 fps=426 q=-0.0 size=N/A time=00:17:07.31 bitrate=N/A speed=17.8x    frame=24829 fps=426 q=-0.0 size=N/A time=00:17:15.57 bitrate=N/A speed=17.8x    frame=25040 fps=426 q=-0.0 size=N/A time=00:17:24.37 bitrate=N/A speed=17.8x    frame=25308 fps=427 q=-0.0 size=N/A time=00:17:35.55 bitrate=N/A speed=17.8x    frame=25573 fps=427 q=-0.0 size=N/A time=00:17:46.60 bitrate=N/A speed=17.8x    frame=25856 fps=428 q=-0.0 size=N/A time=00:17:58.41 bitrate=N/A speed=17.9x    frame=26114 fps=429 q=-0.0 size=N/A time=00:18:09.17 bitrate=N/A speed=17.9x    frame=26389 fps=430 q=-0.0 size=N/A time=00:18:20.64 bitrate=N/A speed=17.9x    frame=26656 fps=431 q=-0.0 size=N/A time=00:18:31.77 bitrate=N/A speed=  18x    frame=26924 fps=431 q=-0.0 size=N/A time=00:18:42.95 bitrate=N/A speed=  18x    frame=27192 fps=432 q=-0.0 size=N/A time=00:18:54.13 bitrate=N/A speed=  18x    frame=27466 fps=433 q=-0.0 size=N/A time=00:19:05.56 bitrate=N/A speed=18.1x    frame=27713 fps=433 q=-0.0 size=N/A time=00:19:15.86 bitrate=N/A speed=18.1x    frame=27947 fps=433 q=-0.0 size=N/A time=00:19:25.62 bitrate=N/A speed=18.1x    frame=28195 fps=434 q=-0.0 size=N/A time=00:19:35.96 bitrate=N/A speed=18.1x    frame=28365 fps=433 q=-0.0 size=N/A time=00:19:43.05 bitrate=N/A speed=18.1x    frame=28612 fps=433 q=-0.0 size=N/A time=00:19:53.35 bitrate=N/A speed=18.1x    frame=28840 fps=433 q=-0.0 size=N/A time=00:20:02.86 bitrate=N/A speed=18.1x    frame=29040 fps=433 q=-0.0 size=N/A time=00:20:11.21 bitrate=N/A speed=18.1x    frame=29268 fps=433 q=-0.0 size=N/A time=00:20:20.71 bitrate=N/A speed=18.1x    frame=29539 fps=434 q=-0.0 size=N/A time=00:20:32.02 bitrate=N/A speed=18.1x    frame=29750 fps=434 q=-0.0 size=N/A time=00:20:40.82 bitrate=N/A speed=18.1x    frame=30020 fps=434 q=-0.0 size=N/A time=00:20:52.08 bitrate=N/A speed=18.1x    frame=30280 fps=435 q=-0.0 size=N/A time=00:21:02.92 bitrate=N/A speed=18.1x    frame=30487 fps=435 q=-0.0 size=N/A time=00:21:11.56 bitrate=N/A speed=18.1x    frame=30702 fps=434 q=-0.0 size=N/A time=00:21:20.52 bitrate=N/A speed=18.1x    frame=30925 fps=434 q=-0.0 size=N/A time=00:21:29.83 bitrate=N/A speed=18.1x    frame=31150 fps=434 q=-0.0 size=N/A time=00:21:39.21 bitrate=N/A speed=18.1x    frame=31392 fps=435 q=-0.0 size=N/A time=00:21:49.30 bitrate=N/A speed=18.1x    frame=31608 fps=435 q=-0.0 size=N/A time=00:21:58.31 bitrate=N/A speed=18.1x    frame=31792 fps=434 q=-0.0 size=N/A time=00:22:05.99 bitrate=N/A speed=18.1x    frame=32022 fps=434 q=-0.0 size=N/A time=00:22:15.58 bitrate=N/A speed=18.1x    frame=32253 fps=434 q=-0.0 size=N/A time=00:22:25.21 bitrate=N/A speed=18.1x    frame=32457 fps=434 q=-0.0 size=N/A time=00:22:33.72 bitrate=N/A speed=18.1x    frame=32659 fps=434 q=-0.0 size=N/A time=00:22:42.15 bitrate=N/A speed=18.1x    frame=32876 fps=433 q=-0.0 size=N/A time=00:22:51.20 bitrate=N/A speed=18.1x    frame=33074 fps=433 q=-0.0 size=N/A time=00:22:59.46 bitrate=N/A speed=18.1x    frame=33291 fps=433 q=-0.0 size=N/A time=00:23:08.51 bitrate=N/A speed=18.1x    frame=33481 fps=433 q=-0.0 size=N/A time=00:23:16.43 bitrate=N/A speed=  18x    frame=33636 fps=432 q=-0.0 size=N/A time=00:23:22.90 bitrate=N/A speed=  18x    frame=33816 fps=431 q=-0.0 size=N/A time=00:23:30.40 bitrate=N/A speed=  18x    frame=34000 fps=431 q=-0.0 size=N/A time=00:23:38.08 bitrate=N/A speed=  18x    frame=34217 fps=431 q=-0.0 size=N/A time=00:23:47.13 bitrate=N/A speed=  18x    frame=34419 fps=430 q=-0.0 size=N/A time=00:23:55.55 bitrate=N/A speed=  18x    [Parsed_ssim_10 @ 000002e96ddbba80] SSIM Y:0.993521 (21.885002) U:0.992899 (21.486604) V:0.992217 (21.088595) All:0.993200 (21.674941)
[out#0/null @ 000002e96dbbfe00] video:14857KiB audio:270728KiB subtitle:0KiB other streams:0KiB global headers:0KiB muxing overhead: unknown
frame=34577 fps=430 q=-0.0 Lsize=N/A time=00:24:02.14 bitrate=N/A speed=17.9x    
